<svg xmlns="http://www.w3.org/2000/svg" height="161.805" width="171.132"><path d="M99.989 133.661c-13.286 5.941-26.83 9.806-38.987 11.033C28.377 119.323-15.364 71.035 8.33 25.239 16.719 9.025 42.805-3.728 61.002 3.903c17.013 7.135 22.938 28.7 26.21 44.346 17.877-37.249 87.51-48.972 82.1 8.576-1.942 20.671-15.4 39.7-33.554 54.756" fill="#ff9d98" stroke="#3e4147" stroke-linecap="round" stroke-linejoin="round" stroke-width="3"/><path d="M128.059 116.334c-21.931-28.944-55.68-16.3-50.276 12.777C49.271 118.79 17.948 41.672 39.008 2.917 26.019 6.123 13.635 14.984 8.33 25.238c-23.694 45.8 20.047 94.084 52.672 119.454 12.157-1.226 25.7-5.091 38.987-11.032z" fill="#e47e95"/><path d="M99.989 133.661c-13.286 5.941-26.83 9.806-38.987 11.033C28.377 119.323-15.364 71.035 8.33 25.239 16.719 9.025 42.805-3.728 61.002 3.903c17.013 7.135 22.938 28.7 26.21 44.346 17.877-37.249 87.51-48.972 82.1 8.576-1.942 20.671-15.4 39.7-33.554 54.756" fill="none" stroke="#3e4147" stroke-linecap="round" stroke-linejoin="round" stroke-width="3"/><path d="M111.302 158.895c-9.618-14.858-20.5-40.55-4.466-55.731 5.677-5.375 18.024-6.856 24.307-1.206 5.875 5.283 5.232 14.84 4.351 21.628 12.479-12.545 42.291-7.473 31.994 15.039-8.191 17.908-38.088 24.599-56.186 20.27z" fill="#ff9d98" stroke="#3e4147" stroke-linecap="round" stroke-linejoin="round" stroke-width="3"/><path d="M117.418 98.575a19.359 19.359 0 00-10.582 4.589c-16.037 15.181-5.152 40.873 4.466 55.731 6.9 1.651 15.515 1.694 23.989.129-24.603-16.018-28.034-48.582-17.873-60.449z" fill="#e47e95"/><path d="M111.302 158.895c-9.618-14.858-20.5-40.55-4.466-55.731 5.677-5.375 18.024-6.856 24.307-1.206 5.875 5.283 5.232 14.84 4.351 21.628 12.479-12.545 42.291-7.473 31.994 15.039-8.191 17.908-38.088 24.599-56.186 20.27z" fill="none" stroke="#3e4147" stroke-linecap="round" stroke-linejoin="round" stroke-width="3"/><g fill="#ffbfe6" transform="translate(-5931.976 -2443.639)"><ellipse cx="5985.399" cy="2464.323" rx="9.667" ry="5.333"/><ellipse cx="5.333" cy="9.667" rx="5.333" ry="9.667" transform="rotate(-58.305 5256.633 -4197.604)"/><ellipse cx="3" cy="4.333" rx="3" ry="4.333" transform="rotate(-57.848 5336.263 -4197.366)"/><ellipse cx="3" cy="4.333" rx="3" ry="4.333" transform="rotate(-57.848 5366.097 -4217.1)"/></g></svg>
